<svg width="13" height="17" viewBox="0 0 13 17" fill="none" xmlns="http://www.w3.org/2000/svg">
<path d="M9.75005 3.71877H8.83471L9.10565 3.04143L12.1125 1.53799L11.6371 0.587585L8.44955 2.18134C8.33321 2.23924 8.24236 2.33859 8.19402 2.45918L7.6904 3.71877H1.25005C0.665677 3.71877 0.227396 4.1953 0.27574 4.77755L1.16186 15.41C1.21021 15.9922 1.72818 16.4688 2.31255 16.4688H8.68755C9.27193 16.4688 9.7899 15.9922 9.83824 15.41L10.7244 4.77755C10.7727 4.1953 10.3344 3.71877 9.75005 3.71877ZM9.65761 4.78127L9.39199 7.96877H7.13471L8.40971 4.78127H9.65761ZM7.2654 4.78127L5.9904 7.96877H1.60811L1.34249 4.78127H7.2654Z" fill="white"/>
</svg>
