<?xml version="1.0" encoding="utf-8"?>
<!-- Generator: Adobe Illustrator 25.0.0, SVG Export Plug-In . SVG Version: 6.00 Build 0)  -->
<svg version="1.1" id="Layer_1" xmlns="http://www.w3.org/2000/svg" xmlns:xlink="http://www.w3.org/1999/xlink" x="0px" y="0px"
	 viewBox="0 0 1920 1080" style="enable-background:new 0 0 1920 1080;" xml:space="preserve">
<style type="text/css">
	.st0{fill:#D60388;}
	.st1{fill:#DC098E;}
	.st2{fill:#F35DF6;}
	.st3{fill:#EA6CFB;}
	.st4{fill:#85F2FD;}
	.st5{fill:#66F0F1;}
	.st6{fill:#E2C56F;}
	.st7{fill:#E5C862;}
	.st8{font-family:'Berlin';}
	.st9{font-size:198.7718px;}
	.st10{font-family:'Wotfard-Regular';}
	.st11{font-size:36.2909px;}
</style>
<g>
	<g>
		<path className="st0" d="M638.2,514.1l-21.5-27c-0.9-1.1-0.7-2.7,0.4-3.5l57.8-46.2c1.1-0.9,2.7-0.7,3.5,0.4l21.5,27
			c0.9,1.1,0.7,2.7-0.4,3.5l-57.8,46.2C640.6,515.3,639,515.1,638.2,514.1z"/>
		<path className="st1" d="M477.7,642.2l-21.5-27c-0.9-1.1-0.7-2.7,0.4-3.5l57.8-46.2c1.1-0.9,2.7-0.7,3.5,0.4l21.5,27
			c0.9,1.1,0.7,2.7-0.4,3.5l-57.8,46.2C480.1,643.4,478.5,643.2,477.7,642.2z"/>
		<path className="st2" d="M604,600.1l27-21.5c1.1-0.9,2.7-0.7,3.5,0.4l46.2,57.8c0.9,1.1,0.7,2.7-0.4,3.5l-27,21.5
			c-1.1,0.9-2.7,0.7-3.5-0.4l-46.2-57.8C602.7,602.6,602.9,601,604,600.1z"/>
		<path className="st3" d="M475.9,439.6l27-21.5c1.1-0.9,2.7-0.7,3.5,0.4l46.2,57.8c0.9,1.1,0.7,2.7-0.4,3.5l-27,21.5
			c-1.1,0.9-2.7,0.7-3.5-0.4l-46.2-57.8C474.6,442.1,474.8,440.5,475.9,439.6z"/>
		<path className="st4" d="M638.9,564.2l3.8-34.3c0.2-1.4,1.4-2.4,2.8-2.2L719,536c1.4,0.2,2.4,1.4,2.2,2.8l-3.8,34.3
			c-0.2,1.4-1.4,2.4-2.8,2.2l-73.5-8.3C639.7,566.8,638.7,565.6,638.9,564.2z"/>
		<path className="st5" d="M434.8,541.3l3.8-34.3c0.2-1.4,1.4-2.4,2.8-2.2L515,513c1.4,0.2,2.4,1.4,2.2,2.8l-3.8,34.3
			c-0.2,1.4-1.4,2.4-2.8,2.2L437,544C435.6,543.9,434.7,542.6,434.8,541.3z"/>
		<path className="st6" d="M553.8,600.9l34.3,3.8c1.4,0.2,2.4,1.4,2.2,2.8l-8.3,73.5c-0.2,1.4-1.4,2.4-2.8,2.2l-34.3-3.8
			c-1.4-0.2-2.4-1.4-2.2-2.8l8.3-73.5C551.2,601.7,552.5,600.7,553.8,600.9z"/>
		<path className="st7" d="M576.8,396.8l34.3,3.8c1.4,0.2,2.4,1.4,2.2,2.8l-8.3,73.5c-0.2,1.4-1.4,2.4-2.8,2.2l-34.3-3.8
			c-1.4-0.2-2.4-1.4-2.2-2.8L574,399C574.1,397.6,575.4,396.6,576.8,396.8z"/>
	</g>
	<g>
		<g>
			<text transform="matrix(1 0 0 1 815.9454 595.752)"><tspan x="0" y="0" className="st4 st8 st9">Diani</tspan><tspan x="355.2" y="0" className="st3 st8 st9">App</tspan></text>
		</g>
		<g>
			<text transform="matrix(1 0 0 1 820.0861 645.0732)" className="st7 st10 st11">One Tap. One App. 24/7</text>
		</g>
	</g>
</g>
</svg>
